<?xml version="1.0" standalone="no"?>
<!DOCTYPE svg PUBLIC "-//W3C//DTD SVG 1.1//EN" "http://www.w3.org/Graphics/SVG/1.1/DTD/svg11.dtd" >
<svg xmlns="http://www.w3.org/2000/svg">
<metadata></metadata>
<defs>
<font id="franklingothicbookxcmpcbold" horiz-adv-x="684" >
<font-face units-per-em="2048" ascent="1638" descent="-410" />
<missing-glyph horiz-adv-x="477" />
<glyph horiz-adv-x="2048" />
<glyph horiz-adv-x="2048" />
<glyph unicode="&#xd;" horiz-adv-x="2048" />
<glyph unicode=" "  horiz-adv-x="477" />
<glyph unicode="&#x09;" horiz-adv-x="477" />
<glyph unicode="&#xa0;" horiz-adv-x="477" />
<glyph unicode="!" horiz-adv-x="434" d="M104 1405h226l-35 -1034h-154zM113 0v242h217v-242h-217z" />
<glyph unicode="&#x22;" horiz-adv-x="688" d="M109 1405h184l-19 -625h-147zM395 1405h185l-19 -625h-147z" />
<glyph unicode="#" d="M16 436l11 139h100l31 287h-95l11 139h100l43 404h141l-43 -404h107l45 404h143l-43 -404h101l-11 -139h-106l-31 -287h101l-13 -139h-104l-47 -436h-144l49 436h-108l-47 -436h-141l45 436h-95zM264 575h119l31 287h-119z" />
<glyph unicode="$" d="M63 344l179 37q0 -79 24 -129q24 -51 76 -51q45 0 61 51q19 50 19 119q0 126 -51 194q-24 33 -68 66t-89 73.5t-77 96.5q-59 103 -59 252q0 150 47 227q55 88 156 102v136h127v-134q88 -10 137 -86q39 -58 53 -174l-178 -34q-4 68 -19 102q-17 37 -53 37q-40 0 -57 -41 q-19 -38 -19 -127q0 -124 66 -197q22 -24 67.5 -59.5t87 -77t72.5 -98.5q56 -105 56 -236q0 -149 -37 -227q-51 -112 -178 -129v-178h-127v178q-90 8 -144 74q-33 39 -52.5 105t-19.5 128z" />
<glyph unicode="%" horiz-adv-x="1189" d="M45 983q0 283 61 365q50 65 148 65q97 0 147 -65q62 -83 62 -365t-62 -365q-50 -65 -147 -65q-98 0 -148 65q-61 82 -61 365zM201 891q0 -140 12 -186q9 -37 41 -37t41 37q12 46 12 186v184q0 141 -12 187q-9 36 -41 36t-41 -36q-12 -46 -12 -187v-184zM348 0l391 1403 h117l-389 -1403h-119zM727 420q0 153 14.5 237.5t46.5 126.5q50 66 148 66q97 0 147 -66q62 -83 62 -364q0 -282 -62 -365q-50 -65 -147 -65q-98 0 -148 65q-61 82 -61 365zM883 328q0 -141 12 -187q9 -37 41 -37t41 37q12 46 12 187v184q0 140 -12 186q-9 37 -41 37 t-41 -37q-12 -46 -12 -186v-184z" />
<glyph unicode="&#x26;" horiz-adv-x="714" d="M23 365q0 178 67 303q38 68 105 155q-46 85 -64 125q-49 111 -49 199q0 120 63 199q71 84 177 84q94 0 161 -70q74 -78 74 -209q0 -110 -63 -221q-46 -80 -103 -135l150 -336q9 33 16 114q1 7 10 119l154 -20q-3 -120 -31 -228q-13 -57 -57 -178q5 -19 29 -51 q32 -45 59 -45q6 0 14 4v-174q-29 -14 -59 -14q-34 0 -56.5 8t-46.5 29q-31 25 -47 55q-30 -34 -67 -58q-58 -38 -135 -38q-131 0 -215 96q-86 99 -86 287zM217 387q0 -112 33 -174q32 -59 88 -59t96 43q20 24 23 30l-187 422q-53 -119 -53 -262zM260 1153q0 -41 25 -123 q13 -45 39 -84q32 40 49 82q28 72 28 137q0 43 -22 74q-20 27 -45 27q-34 0 -55 -33q-19 -34 -19 -80z" />
<glyph unicode="'" horiz-adv-x="436" d="M127 1405h182l-18 -625h-146z" />
<glyph unicode="(" horiz-adv-x="430" d="M84 612q0 218 39.5 428t142.5 449h148q-57 -203 -95 -445.5t-38 -429.5q0 -176 38.5 -429.5t98.5 -450.5h-150q-99 228 -141.5 436.5t-42.5 441.5z" />
<glyph unicode=")" horiz-adv-x="432" d="M12 -266q29 84 64 252q76 384 76 628q0 248 -66 584q-18 103 -70 291h150q58 -138 92 -250q49 -157 69.5 -303.5t20.5 -323.5q0 -206 -24 -340.5t-80 -326.5q-26 -90 -42.5 -131.5t-39.5 -79.5h-150z" />
<glyph unicode="*" horiz-adv-x="647" d="M45 1192l80 137l158 -141l-37 225h155l-24 -219l145 135l80 -135l-184 -82l184 -76l-80 -137l-149 131l28 -219h-155l30 219l-151 -131l-78 139l193 74z" />
<glyph unicode="+" d="M74 637v131h202v367h132v-367h202v-131h-202v-365l-132 -2v367h-202z" />
<glyph unicode="," horiz-adv-x="399" d="M96 0v250h207v-232l-102 -282h-92l67 264h-80z" />
<glyph unicode="-" horiz-adv-x="468" d="M70 461v170h329v-170h-329z" />
<glyph unicode="." horiz-adv-x="399" d="M88 0v254h223v-254h-223z" />
<glyph unicode="/" horiz-adv-x="536" d="M-57 -352l438 1755h137l-438 -1755h-137z" />
<glyph unicode="0" d="M47 705q0 291 33 464q50 256 262 256t262 -256q33 -173 33 -464q0 -292 -33 -465q-50 -256 -262 -256t-262 256q-33 173 -33 465zM254 705q0 -226 8 -390q2 -40 4.5 -62.5t10.5 -48t24 -37t41 -11.5t41 11.5t24 37t10.5 48t4.5 62.5q8 164 8 390q0 225 -8 389 q-2 40 -4.5 62.5t-10.5 48t-24 37t-41 11.5t-41 -11.5t-24 -37t-10.5 -48t-4.5 -62.5q-8 -164 -8 -389z" />
<glyph unicode="1" horiz-adv-x="688" d="M123 0v158h151v948q-41 -41 -59 -55q-47 -39 -90 -56v199q83 64 117 102q56 62 73 125h144v-1263h149v-158h-485z" />
<glyph unicode="2" d="M27 1055q-3 64 12.5 135t42.5 115q76 116 227 116q141 0 217 -100q35 -47 54.5 -124t19.5 -150q0 -109 -35.5 -241.5t-89.5 -246.5q-89 -189 -244 -385h365v-174h-553v168q85 118 163 257.5t124 270.5q59 174 59 310q0 133 -18 184q-18 55 -68 55q-55 0 -72 -65 q-12 -46 -12 -136z" />
<glyph unicode="3" d="M10 283l185 43q4 -82 32 -131q14 -25 31.5 -34t44.5 -9q38 0 55 18.5t27 58.5q14 63 14 154q0 130 -26 180q-14 27 -31 44.5t-37.5 24.5t-36 9t-37.5 2h-36v174h36q83 0 115 57q27 43 27 175q0 79 -8 141q-5 31 -18 48t-44 17q-35 0 -53 -41q-15 -34 -19 -96l-190 29 q5 47 24.5 100.5t49.5 89.5q72 86 198 86q128 0 201 -90q66 -85 66 -272q0 -155 -48 -236q-31 -55 -96 -84q70 -23 113 -88q61 -95 61 -268q0 -188 -67 -287q-81 -114 -236 -114q-140 0 -215 84q-34 39 -55.5 99t-26.5 116z" />
<glyph unicode="4" d="M27 506l317 913h182v-930h99v-159h-99v-330h-180v330h-317zM166 489h190v584z" />
<glyph unicode="5" d="M70 283l198 30q0 -71 19 -114q14 -39 55 -39q36 0 52.5 21.5t23.5 60.5q12 81 12 207q0 154 -16 243q-3 18 -8.5 34t-23 33t-42.5 17q-42 0 -61 -53q-14 -39 -19 -102l-168 24l31 760h465l-10 -160h-287l-25 -377q17 38 43 56q39 28 97 28q104 0 167 -108 q66 -113 66 -375q0 -91 -11 -165.5t-28 -119t-28 -65t-21 -33.5q-80 -102 -215 -102q-113 0 -180 67q-34 35 -58.5 104t-27.5 128z" />
<glyph unicode="6" d="M76 659q0 321 27 466t73 202q76 96 203 96q107 0 174 -84q65 -83 65 -198l-176 -31q0 82 -20 121q-19 37 -55 37q-55 0 -70 -72q-18 -76 -18 -242q0 -16 1 -50t1 -50v-14q18 36 41 53q36 29 84 29q112 0 174 -99q39 -62 55 -166t16 -194t-17 -195.5t-54 -165.5 q-72 -118 -222 -118q-71 0 -117.5 27.5t-82.5 94.5q-82 146 -82 553zM287 453q0 -137 3 -187.5t17 -83.5q19 -47 62 -47q49 0 63 51q9 26 12.5 68.5t4 76.5t0.5 136q0 152 -13 219q-14 82 -69 82q-21 0 -36.5 -14.5t-21 -29t-8.5 -30.5q-14 -63 -14 -241z" />
<glyph unicode="7" horiz-adv-x="681" d="M78 1229l14 176h520v-139q-97 -194 -157 -435q-78 -315 -78 -626q0 -119 12 -205h-219q-4 66 -4 121q0 406 119 760q58 177 157 348h-364z" />
<glyph unicode="8" d="M43 326q0 136 47 241q36 87 113 156q-65 90 -82 129q-43 97 -43 231q0 176 84 265q72 75 182 75q109 0 180 -65q84 -77 84 -228q0 -129 -67 -251q-37 -66 -78 -107q71 -71 106 -131q72 -121 72 -289q0 -187 -88 -282q-79 -86 -217 -86q-136 0 -209 77q-84 84 -84 265z M233 358q0 -114 25 -168q24 -55 76 -55q54 0 82 58q22 48 22 141q0 105 -47 194q-35 65 -82 101q-32 -32 -51 -90q-25 -85 -25 -181zM266 1100q0 -56 6.5 -87.5t26.5 -72.5q21 -46 55 -86q32 40 49 78q35 74 35 162q0 86 -22 125q-12 25 -26 34t-38 9q-39 0 -61 -35 q-25 -38 -25 -127z" />
<glyph unicode="9" d="M41 944q0 245 78 363q76 116 207 116q43 0 80 -13t62 -32t46 -47t33 -53t21.5 -55t13 -47t6.5 -35q28 -145 28 -381q0 -368 -45 -549q-14 -58 -37 -100.5t-47.5 -66.5t-56 -38t-57.5 -18t-58 -4q-118 0 -180 67q-35 37 -56.5 97.5t-23.5 117.5l187 25q0 -69 18 -109 q19 -47 64 -47q23 0 39 12.5t25 29.5t15 45t8 50t4 53q1 11 1 17q6 135 6 258q-25 -50 -47 -72q-34 -34 -96 -34q-109 0 -173 104q-65 105 -65 346zM242 952q0 -200 20 -262q19 -49 62 -49q42 0 61 49q21 52 21 262q0 203 -19 258q-19 56 -61 56q-50 0 -66 -62 q-9 -29 -13 -69.5t-4.5 -74.5t-0.5 -108z" />
<glyph unicode=":" horiz-adv-x="395" d="M94 0v250h207v-250h-207zM94 788v250h207v-250h-207z" />
<glyph unicode=";" horiz-adv-x="397" d="M94 788v250h207v-250h-207zM96 0v250h207v-232l-102 -282h-92l67 264h-80z" />
<glyph unicode="&#x3c;" d="M27 635v153l630 375v-178l-477 -274l477 -273v-178z" />
<glyph unicode="=" d="M51 510v143h582v-143h-582zM51 754v141h582v-141h-582z" />
<glyph unicode="&#x3e;" d="M27 260v178l477 273l-477 274v178l630 -375v-153z" />
<glyph unicode="?" horiz-adv-x="647" d="M47 1063q-2 64 18 144t54 124q69 90 207 90q133 0 204 -100q56 -81 56 -238q0 -155 -49 -258q-22 -47 -70.5 -105.5t-56.5 -70.5q-7 -10 -12 -19t-9 -18.5t-7 -16t-4.5 -16.5t-2.5 -14.5t-1.5 -15t-0.5 -13.5v-14.5v-13.5v-137h-178v129q0 50 1 74t8.5 64t22.5 73 q15 35 70 98q53 61 65 90q21 51 21 170q0 117 -14 148q-15 38 -54 38q-45 0 -65 -51q-23 -59 -23 -157zM186 0v231h205v-231h-205z" />
<glyph unicode="@" horiz-adv-x="972" d="M53 707q0 196 41.5 366.5t136.5 272.5q110 118 287 118q173 0 273 -116q75 -86 108 -235.5t33 -291.5q0 -105 -17.5 -211t-54.5 -174q-66 -121 -166 -121q-54 0 -82 31q-16 20 -20 55q-17 -38 -39 -57q-18 -15 -45.5 -25t-48.5 -10q-31 0 -62.5 14.5t-52.5 36.5 q-57 63 -57 244q0 303 82 404q52 65 127 65q42 0 69 -24q17 -17 23 -35l18 53h101l-33 -457q-6 -81 -6 -135q0 -57 32 -57q42 0 60 71q28 103 28 265q0 200 -25.5 316t-82.5 185q-65 80 -164 80q-102 0 -180 -90q-72 -85 -104.5 -237.5t-32.5 -305.5q0 -407 131 -550 q79 -86 198 -86q52 0 84 8.5t72 31.5q55 31 84 60l63 -109q-83 -58 -106 -69q-87 -47 -211 -47q-82 0 -147.5 19t-130.5 81q-58 55 -96.5 133.5t-56 173t-24 176.5t-6.5 183zM432 557q0 -70 6 -88q11 -43 43 -43q36 0 47 55q8 29 15 152l18 274q0 7 -6 31q-11 25 -31 25 q-34 0 -51 -43q-41 -91 -41 -363z" />
<glyph unicode="A" horiz-adv-x="647" d="M0 0l217 1405h207l223 -1405h-196l-50 387h-170l-43 -387h-188zM246 559h135l-31 250q-20 160 -28 250t-15 133q-10 -95 -12 -156t-21 -227z" />
<glyph unicode="B" d="M94 0v1405h191q46 0 76.5 -2.5t74.5 -15.5t76 -39q106 -84 106 -287q0 -164 -49 -236q-35 -56 -108 -75q84 -21 137 -97q57 -89 57 -262q0 -219 -106 -315q-30 -27 -66.5 -44.5t-78 -23.5t-62.5 -7t-57 -1h-191zM295 166h35q38 0 59 10t37 45q18 41 18 185q0 148 -24 200 q-12 25 -26.5 37.5t-25 14t-31.5 1.5h-7h-35v-493zM295 823l29 -2h8q54 0 80 60q14 31 14 151q0 116 -25 166q-12 21 -26.5 31.5t-24 12t-26.5 1.5h-29v-420z" />
<glyph unicode="C" horiz-adv-x="647" d="M59 715q0 472 113 612q80 96 205 96q120 0 190 -77q38 -42 65 -125t30 -152l-195 -25q-4 82 -25 142q-20 59 -63 59q-35 0 -50.5 -23t-23.5 -61q-24 -120 -24 -465q0 -362 30 -467q18 -69 70 -69q47 0 65 61q17 57 21 125l195 -29q-5 -61 -27 -130.5t-55 -112.5 q-69 -90 -199 -90q-138 0 -215 102q-107 142 -107 629z" />
<glyph unicode="D" horiz-adv-x="757" d="M94 0v1405h201q27 0 44.5 -0.5t49.5 -5t55.5 -12.5t54.5 -25t54.5 -40t48 -59.5t41.5 -82.5q55 -151 55 -461q0 -357 -61 -518q-26 -67 -62.5 -110t-81.5 -61.5t-80.5 -24t-82.5 -5.5h-236zM305 178h25q38 0 63 16t45 62q41 93 41 444q0 96 -8.5 233.5t-24.5 188.5 q-19 59 -47.5 82t-68.5 23h-25v-1049z" />
<glyph unicode="E" horiz-adv-x="614" d="M94 0v1405h479v-178h-268v-402h195v-178h-195v-469h287v-178h-498z" />
<glyph unicode="F" horiz-adv-x="579" d="M94 0v1405h471v-178h-260v-408h209v-178h-209v-641h-211z" />
<glyph unicode="G" horiz-adv-x="755" d="M59 707q0 249 22 397t87 225q82 94 213 94q145 0 221 -100q31 -40 54 -112.5t28 -129.5l-207 -26q-3 84 -31 141q-22 49 -65 49q-57 0 -80 -76q-22 -71 -22 -456q0 -391 24 -475q25 -86 86 -86q57 0 82 73q16 47 16 205v90h-98v187h295v-713l-137 -2l-21 110 q-13 -35 -45 -67q-47 -47 -131 -47q-120 0 -194 102q-97 139 -97 617z" />
<glyph unicode="H" horiz-adv-x="794" d="M94 0v1405h211v-592h184v592h211v-1405h-211v623h-184v-623h-211z" />
<glyph unicode="I" horiz-adv-x="399" d="M94 0v1405h211v-1405h-211z" />
<glyph unicode="J" horiz-adv-x="468" d="M-12 6v174l10 -2q10 -1 31 -2.5t49 -1.5q32 0 53 11t33 44q12 36 12 123v1053h211v-1043q0 -166 -41 -239q-8 -16 -22.5 -34t-42.5 -42.5t-75.5 -40.5t-105.5 -16q-62 0 -112 16z" />
<glyph unicode="K" d="M94 0v1405h203v-518l188 518h199l-254 -598l277 -807h-220l-190 657v-657h-203z" />
<glyph unicode="L" horiz-adv-x="540" d="M94 0v1405h211v-1227h264v-178h-475z" />
<glyph unicode="M" horiz-adv-x="972" d="M96 0v1405h228l116 -737q27 -165 43 -398q0 4 1 12.5t1 12.5q1 17 3.5 48.5t3.5 47.5q3 49 38 277l111 737h236v-1405h-170v532q0 156 4 332q2 70 2 178q-20 -139 -21 -145q-15 -123 -23 -182t-15 -100t-13 -83l-80 -532h-158l-84 545q-7 46 -19 114t-20.5 121t-13.5 103 q-9 102 -16 159q10 -215 10 -503v-539h-164z" />
<glyph unicode="N" horiz-adv-x="794" d="M94 0v1405h176l181 -633q84 -293 96 -369q-17 448 -17 504v498h170v-1405h-170l-190 623q-16 52 -29.5 101t-20.5 79.5t-19.5 85t-20.5 86.5q0 -34 8 -201q8 -160 8 -321v-453h-172z" />
<glyph unicode="O" horiz-adv-x="757" d="M59 702q0 211 12.5 327t41.5 192q23 60 57 102.5t71.5 63t70.5 28.5t67 8t67 -8t70.5 -28.5t71.5 -63t57 -102.5q29 -75 41 -191t12 -328t-12 -327.5t-41 -190.5q-23 -60 -57 -102.5t-71.5 -63t-70.5 -28.5t-67 -8t-67 8t-70.5 28.5t-71.5 63t-57 102.5q-30 76 -42 191.5 t-12 326.5zM285 702q0 -196 5 -310.5t10.5 -144t14.5 -48.5q21 -43 64 -43q42 0 63 43q9 19 14.5 48.5t11 144t5.5 310.5t-5.5 311t-11 144.5t-14.5 48.5q-21 43 -63 43q-43 0 -64 -43q-9 -19 -14.5 -49t-10.5 -144.5t-5 -310.5z" />
<glyph unicode="P" horiz-adv-x="686" d="M94 0v1405h238q40 0 57 -1t54.5 -7t68.5 -23.5t59 -46.5q51 -52 76 -148t25 -204q0 -91 -21 -186.5t-71 -149.5q-73 -80 -211 -80h-64v-559h-211zM305 754h41h10.5h11t9.5 0.5t10.5 1.5t9 3t9.5 5t8.5 7.5t9.5 10.5t8 13q19 34 19 188q0 151 -19 195q-11 22 -26 33.5 t-27 13.5t-33 2h-41v-473z" />
<glyph unicode="Q" horiz-adv-x="757" d="M59 681v21q0 82 0.5 114t3.5 113.5t11 127.5t22 109t38 107.5t56 76.5q76 73 187 73q60 0 114 -24.5t89 -63.5q118 -135 118 -633q0 -489 -118 -632q-47 -56 -117 -74q-8 -24 -8 -74q0 -30 14 -49q20 -29 74 -29q35 0 82 17v-158q-15 -5 -32 -11l-25.5 -9t-23 -5 t-32.5 -2q-100 0 -158 58q-63 63 -63 184q0 56 6 74q-61 16 -104 59q-32 32 -56.5 76.5t-38.5 102.5t-22.5 106.5t-12 121t-4 112t-0.5 111.5zM285 702q0 -268 7.5 -368.5t22.5 -132.5q21 -43 64 -43q42 0 63 43q31 62 31 501q0 198 -5.5 312.5t-11 143.5t-14.5 48 q-21 43 -63 43q-45 0 -66 -43q-28 -54 -28 -504z" />
<glyph unicode="R" horiz-adv-x="720" d="M94 0v1405h246q77 0 134.5 -18.5t107.5 -79.5q28 -34 46 -75t24.5 -88.5t8 -76t1.5 -72.5q0 -165 -41 -245q-36 -65 -86 -95l176 -655h-217l-138 604h-51v-604h-211zM305 786h35q61 0 84 52q18 36 18 170q0 142 -26 184q-5 7 -10 12.5t-8.5 9.5t-10 6.5t-8.5 4t-10 2 t-9 0.5h-10h-10h-35v-441z" />
<glyph unicode="S" horiz-adv-x="647" d="M31 324l196 20q-1 -10 0 -20q0 -61 21 -115q11 -27 26 -39t41 -12q29 0 45 14t27 45q21 63 21 148q0 113 -52 186q-20 26 -96 94q-90 81 -129 137q-46 66 -63 130t-17 143q0 175 68 268q74 100 203 100q122 0 192 -84q11 -11 25.5 -33t33.5 -77t19 -115l-197 -24 q-2 51 -18 108q-7 25 -17 36t-34 11q-30 0 -47 -28q-21 -42 -21 -138q0 -53 11 -91t42 -77q26 -33 62 -65.5t63.5 -54t61 -58.5t59.5 -82q59 -103 59 -252q0 -185 -61 -290q-78 -125 -238 -125q-142 0 -215 90q-33 40 -53 112q-18 65 -18 126v12z" />
<glyph unicode="T" horiz-adv-x="464" d="M-27 1227v178h519v-178h-154v-1227h-209v1227h-156z" />
<glyph unicode="U" horiz-adv-x="755" d="M94 365v1040h209v-1055q0 -102 4 -114q9 -64 72 -64t72 64q4 12 4 114v1055h207v-1040q0 -192 -44 -265q-73 -116 -239 -116q-169 0 -242 116q-43 70 -43 265z" />
<glyph unicode="V" horiz-adv-x="647" d="M8 1405h211l66 -526q30 -262 34 -314q6 -88 13 -149q7 35 9.5 61t3 54.5t9.5 121.5t25 230l63 522h197l-215 -1405h-193z" />
<glyph unicode="W" horiz-adv-x="931" d="M10 1405h193l65 -662q12 -122 23 -329q3 56 4.5 97.5t2 57t4 55t11.5 117.5l72 664h174l88 -668q19 -149 22 -224t9 -114q3 59 4.5 147.5t9.5 190.5l51 668h179l-160 -1405h-164l-96 733q-21 151 -23 197q-4 71 -8 100q-7 -135 -22 -293l-89 -737h-170z" />
<glyph unicode="X" horiz-adv-x="573" d="M-25 0l211 725l-186 680h205l90 -440l94 440h191l-191 -657l209 -748h-209l-108 489l-113 -489h-193z" />
<glyph unicode="Y" horiz-adv-x="610" d="M-18 1405h208l66 -295l10 -46q9 -47 19.5 -100t20.5 -114.5t11 -95.5q4 26 14.5 109t19.5 142t20 115l57 285h201l-221 -811v-594h-211v590z" />
<glyph unicode="Z" horiz-adv-x="536" d="M10 0v188l303 1039h-288v178h491v-143l-309 -1084h319v-178h-516z" />
<glyph unicode="[" horiz-adv-x="434" d="M106 -268v1755h291v-146h-108v-1462h110v-147h-293z" />
<glyph unicode="\" horiz-adv-x="536" d="M-57 1403h139l436 -1755h-137z" />
<glyph unicode="]" horiz-adv-x="434" d="M35 -121h110v1462h-106v146h289v-1755h-293v147z" />
<glyph unicode="^" horiz-adv-x="1054" d="M41 752l360 659h252l361 -659h-203l-285 508l-282 -508h-203z" />
<glyph unicode="_" horiz-adv-x="1054" d="M0 -125h1055v-172h-1055v172z" />
<glyph unicode="`" horiz-adv-x="655" d="M92 1321l90 104l201 -215l-72 -71z" />
<glyph unicode="a" horiz-adv-x="577" d="M29 324q0 159 57 249q60 89 154 89q41 0 94 -21v123q0 87 -17 115q-13 22 -38 22q-38 0 -54 -37t-16 -98l-162 16q3 52 24 110t56 95q64 68 158 68q90 0 151 -68q33 -37 49.5 -86t19.5 -85.5t3 -98.5v-557v-17.5v-18.5t0.5 -17t1.5 -19t2.5 -18.5t4 -21.5t6.5 -22t9 -26 h-174q-14 34 -18 84q-15 -43 -50 -70.5t-77 -27.5q-77 0 -127 73q-57 84 -57 265zM215 260q0 -28 1 -44t5 -38t15 -32.5t28 -10.5q25 0 46.5 28.5t21.5 80.5v243q-24 21 -49 21q-68 0 -68 -137v-111z" />
<glyph unicode="b" horiz-adv-x="616" d="M70 0v1405h188v-436q11 26 37 49q36 31 82 31q23 0 44.5 -7.5t46.5 -27t46 -61t33 -101.5q24 -120 24 -332q0 -214 -28 -334q-45 -188 -187 -188q-63 0 -100 35q-23 23 -37 55l-26 -88h-123zM258 299q0 -77 8 -113q9 -45 43 -45q18 0 30.5 11.5t18 32.5t8 40t3.5 45 q4 78 4 258q0 156 -6 244q-6 125 -60 125q-27 0 -39 -31q-8 -20 -8 -65z" />
<glyph unicode="c" horiz-adv-x="540" d="M45 528q0 66 3 117.5t12 124.5t32.5 131t59.5 94q60 60 149 60q98 0 156 -68q38 -45 58 -115q17 -61 17 -121v-18l-176 -12q0 100 -16 147q-4 11 -7.5 17.5t-11.5 13t-20 6.5q-42 0 -51 -71q-8 -70 -8 -279q0 -321 16 -377q14 -43 43 -43t43 41q16 49 16 156l175 -8v-15 q0 -54 -12 -120q-14 -75 -42 -117q-57 -86 -182 -86q-57 0 -99.5 17.5t-76.5 64.5q-44 62 -61 170t-17 290z" />
<glyph unicode="d" horiz-adv-x="614" d="M45 518q0 364 84 469q49 62 121 62q41 0 69 -25q22 -19 37 -53v434h189v-1405h-170v102q-7 -39 -43 -75q-37 -37 -88 -37q-74 0 -121 61q-78 99 -78 467zM244 524q0 -260 10 -321q9 -62 49 -62q29 0 43 43q10 34 10 103v508q0 46 -10 71q-14 31 -37 31q-32 0 -47 -43 q-11 -28 -14.5 -94t-3.5 -236z" />
<glyph unicode="e" horiz-adv-x="575" d="M45 508q0 233 35 344q32 98 92.5 150.5t138.5 52.5q86 0 146.5 -65.5t81.5 -174.5q16 -83 16 -344h-322q0 -201 15 -274q7 -29 20 -45.5t39 -16.5q39 0 55 47q14 40 14 88q0 11 -1 23l166 -21q-2 -49 -17.5 -106.5t-40.5 -93.5q-34 -52 -77.5 -69t-96.5 -17 q-38 0 -69.5 8t-66.5 29.5t-62.5 68t-42.5 115.5q-23 108 -23 301zM233 627h136q0 146 -11 215q-16 63 -55 63q-8 0 -16.5 -3.5t-20.5 -18t-18 -37.5q-15 -56 -15 -219z" />
<glyph unicode="f" horiz-adv-x="395" d="M25 870v170h84v134q0 130 34 182q49 76 158 76q48 0 121 -27v-145q-42 6 -64 6q-46 0 -63 -29q-10 -10 -10 -72v-125h108v-170h-102v-870h-189v870h-77z" />
<glyph unicode="g" horiz-adv-x="573" d="M20 -139q0 81 43 139q31 42 78 68q-45 27 -67 59q-31 50 -31 113q0 52 29 114t75 82q-36 39 -59 101q-27 72 -27 161q0 77 15.5 140.5t28.5 87.5t26 41q65 82 168 82q40 0 78 -21q4 62 39 100q17 18 46.5 29.5t57.5 11.5q8 0 19.5 -2t19.5 -2v-133q-12 4 -27 4 q-40 0 -57 -26q-8 -14 -8 -52q32 -26 49 -75q29 -77 29 -185q0 -144 -53 -229q-34 -54 -83.5 -81.5t-103.5 -27.5q-37 0 -67 15q-20 -6 -37 -29.5t-17 -46.5q0 -53 64 -72q28 -8 100.5 -17.5t126.5 -35.5q25 -13 43.5 -27.5t40 -42t33.5 -71.5t12 -101q0 -62 -18.5 -124 t-57.5 -103q-39 -42 -101 -64t-122 -22q-58 0 -117.5 18.5t-97.5 53.5q-70 66 -70 170zM174 -117q0 -53 37 -88q37 -37 98 -37q56 0 92 39q37 40 37 97q0 108 -90 131q-22 6 -50.5 8t-41.5 4q-33 -19 -53 -57q-29 -56 -29 -97zM246 702q0 -120 9 -152q12 -44 46 -44 q30 0 41.5 29t13.5 83v84v82q0 115 -55 115q-13 0 -23 -6t-16 -21.5t-9.5 -28t-5 -39t-1.5 -40.5v-45v-17z" />
<glyph unicode="h" horiz-adv-x="614" d="M70 0v1405h188v-459q19 44 39 66q40 43 102 43q65 0 107 -45q47 -49 47 -160v-850h-191v829q0 35 -14.5 50.5t-34.5 15.5q-27 0 -43 -31q-12 -20 -12 -43v-821h-188z" />
<glyph unicode="i" horiz-adv-x="325" d="M70 0v1040h186v-1040h-186zM70 1204v201h186v-201h-186z" />
<glyph unicode="j" horiz-adv-x="321" d="M-51 -203q6 0 22 -2h27q16 0 24.5 1t18.5 9.5t16 24.5q9 18 9 86v1124h186v-1116q0 -72 -7 -119.5t-32 -83.5q-54 -79 -182 -79q-30 0 -62 4q-10 2 -20 2v149zM66 1204v201h186v-201h-186z" />
<glyph unicode="k" horiz-adv-x="575" d="M70 0v1405h186v-746l135 379h172l-170 -401l201 -637h-178l-135 469l-25 -76v-393h-186z" />
<glyph unicode="l" horiz-adv-x="325" d="M70 0v1405h186v-1405h-186z" />
<glyph unicode="m" horiz-adv-x="899" d="M70 0v1040h159v-137q18 56 43 92q42 60 117 60q62 0 100 -41q33 -38 43 -84q17 53 46 82q40 43 108 43q87 0 125 -78q25 -45 25 -162v-815h-189l2 782q0 58 -8 82q-12 35 -41 35q-27 0 -43 -35q-14 -32 -14 -63v-801h-181v770q0 78 -10 98q-13 31 -37 31q-30 0 -45 -45 q-12 -32 -12 -68v-786h-188z" />
<glyph unicode="n" horiz-adv-x="614" d="M70 0v1040h161v-137q13 56 50 98q46 54 116 54q97 0 135 -86q21 -47 21 -181v-788h-191v768q0 54 -4 86q-7 41 -41 41q-29 0 -43 -33q-12 -24 -12 -55v-807h-192z" />
<glyph unicode="o" horiz-adv-x="610" d="M45 520q0 191 20 301t66 164q61 70 174 70t174 -70q46 -54 66 -164t20 -301t-20 -301t-66 -164q-60 -69 -174 -69t-174 69q-46 54 -66 164t-20 301zM240 522q0 -278 18 -338q12 -49 47 -49t47 49q19 63 19 338t-19 338q-12 49 -47 49t-47 -49q-18 -60 -18 -338z" />
<glyph unicode="p" horiz-adv-x="616" d="M70 -373v1413h170v-118q17 44 41 75q40 52 96 52q16 0 33.5 -5t44 -21.5t50.5 -57t38 -101.5q28 -118 28 -358q0 -248 -39 -385q-43 -133 -149 -133q-47 0 -86 24q-27 19 -39 37v-422h-188zM258 215q0 -30 12 -49q17 -27 41 -27q28 0 43 35q19 48 19 334q0 255 -15 332 q-13 57 -49 57q-31 0 -43 -41q-8 -28 -8 -53v-588z" />
<glyph unicode="q" horiz-adv-x="614" d="M45 510q0 378 98 483q51 54 117 54q54 0 98 -35q38 -30 50 -68l36 90h101v-1405h-189v422q-15 -23 -30 -35q-31 -24 -80 -24q-64 0 -107 43q-46 46 -70 155t-24 320zM244 379q0 -155 14 -197q14 -41 45 -41q24 0 41 27q12 24 12 59v570q0 100 -49 100q-10 0 -22.5 -10 t-20.5 -33q-20 -57 -20 -223v-252z" />
<glyph unicode="r" horiz-adv-x="430" d="M70 0v1040h170v-139q15 59 53 103q41 49 115 49q10 0 26 -4v-197q-8 4 -31 4q-87 0 -124 -78q-21 -49 -21 -143v-635h-188z" />
<glyph unicode="s" horiz-adv-x="503" d="M16 242l172 24q0 -69 15 -96q18 -29 47 -29q31 0 45 37q8 20 8 68q0 41 -6 67.5t-27 57.5q-27 39 -73 75q-5 4 -19.5 16.5t-21.5 19t-18.5 17.5t-20.5 21.5t-17 22.5q-65 90 -65 213q0 63 19 127t55 104q61 68 149 68q41 0 82.5 -17.5t69.5 -48.5q26 -29 43 -74t18 -92 l-168 -26q0 41 -12 71q-12 29 -35 29q-27 0 -37 -31q-8 -27 -8 -67q0 -65 39 -113q18 -21 52.5 -47.5t67.5 -59.5t60 -81q57 -103 57 -228q0 -138 -63 -213q-61 -71 -182 -71q-86 0 -140 49q-39 35 -61.5 94t-24.5 113z" />
<glyph unicode="t" horiz-adv-x="395" d="M2 870v170h88v256l180 17v-273h109v-170h-105v-591q0 -65 7 -86q13 -39 59 -39q16 0 29 2t28 2v-158q-54 -14 -106 -14q-24 0 -41.5 2t-42 9.5t-46 26t-38.5 46.5q-16 27 -24.5 65t-9.5 65t-1 79l-2 591h-84z" />
<glyph unicode="u" horiz-adv-x="616" d="M63 219v821h191v-800q0 -42 4 -58q5 -35 39 -35q37 0 51 35q8 19 8 51v807h191v-1040h-162v117q-17 -60 -55 -90q-45 -41 -115 -41q-87 0 -123 65q-29 48 -29 168z" />
<glyph unicode="v" horiz-adv-x="503" d="M0 1040h184l45 -381q24 -214 25 -237q2 -37 3 -59.5t1.5 -28.5t0.5 -11t0.5 -14.5t2.5 -32.5v16q0 128 29 367l45 381h168l-160 -1040h-170z" />
<glyph unicode="w" horiz-adv-x="753" d="M16 1040h166l35 -381q17 -182 27 -376q3 39 6 114q3 55 20 262l35 381h144l43 -381q22 -195 24 -256.5t10 -119.5v32.5v32.5q1 32 4 69.5t5.5 63.5t8.5 80t9 86l41 393h139l-133 -1040h-143l-43 367q-2 18 -7.5 53t-7.5 53q-2 19 -6 59.5t-6 59.5q-2 28 -7.5 72t-6.5 51 q-7 -50 -17 -188.5t-12 -159.5l-39 -367h-145z" />
<glyph unicode="x" horiz-adv-x="464" d="M-20 0l163 547l-139 493h180l66 -311l61 311h174l-157 -493l157 -547h-174l-82 352l-86 -352h-163z" />
<glyph unicode="y" horiz-adv-x="501" d="M-14 -203q30 -12 57 -12q43 0 62.5 20.5t31.5 63.5q24 89 33 199l-172 972h186l52 -424q20 -181 20 -255v-13q5 28 7.5 83t17.5 181l51 428h166l-174 -1042q-5 -26 -12.5 -72t-11.5 -68.5t-11 -53.5t-16 -53t-21 -40q-57 -86 -164 -86q-52 0 -102 15v157z" />
<glyph unicode="z" horiz-adv-x="432" d="M2 0v145l234 736h-216v159h402v-127l-240 -753h248v-160h-428z" />
<glyph unicode="{" horiz-adv-x="432" d="M51 522v170q31 -3 54.5 9.5t31.5 33.5q8 24 8 84v436q0 72 11.5 122t48.5 79q18 14 43.5 21.5t42.5 8.5t49 1h82v-150q-55 8 -80 -34q-14 -28 -14 -78v-418q0 -45 -1.5 -67t-11 -50t-28.5 -45q-6 -6 -17.5 -13t-21.5 -11.5t-21.5 -10t-13.5 -6.5q38 -3 68 -24 q23 -17 34 -46t12 -48.5t1 -63.5v-430q0 -55 14 -78q10 -16 32 -27.5t50 -11.5v-149h-66q-86 0 -127 22q-86 47 -86 211v432q0 70 -8 88q-8 19 -29.5 33t-56.5 10z" />
<glyph unicode="|" horiz-adv-x="1071" d="M440 -352v1757h191v-1757h-191z" />
<glyph unicode="}" horiz-adv-x="432" d="M6 -125q28 0 50 11.5t32 27.5q14 23 14 78v430q0 43 1.5 63.5t12.5 49t34 45.5q30 21 67 24q-2 1 -13.5 6.5t-21.5 10t-21.5 11.5t-17.5 13q-19 17 -28.5 45t-11 50t-1.5 67v418q0 50 -14 78q-25 42 -80 34v150h82q32 0 49 -1t42.5 -8.5t43.5 -21.5q37 -29 48.5 -79 t11.5 -122v-436q0 -60 8 -84q8 -21 31.5 -33.5t54.5 -9.5v-170q-35 4 -56.5 -10t-29.5 -33q-8 -18 -8 -88v-432q0 -164 -86 -211q-41 -22 -127 -22h-66v149z" />
<glyph unicode="~" horiz-adv-x="1413" d="M199 1284q52 118 104 172q79 86 199 86q62 0 172 -45l153 -63q57 -21 97 -21q71 0 118 47q35 33 62 86l110 -65q-28 -66 -79 -133q-91 -117 -228 -117q-80 0 -192 49l-113 49q-68 29 -113 29q-78 0 -124 -53q-27 -29 -58 -91z" />
<glyph unicode="&#xa3;" horiz-adv-x="681" d="M4 0v170h129q35 43 49 96q17 70 17 158q0 45 -7 119t-8 102h-125v164h113q-3 52 -10.5 122t-7.5 132q0 184 51 266q69 115 209 115q120 0 186 -82q53 -65 64 -160l-177 -47q4 63 -22 100q-20 29 -51 29q-37 0 -56 -37q-18 -36 -18 -131q0 -113 12 -211q1 -13 5.5 -38 t7.5 -58h155v-164h-143q0 -43 2 -78.5t2 -62.5q0 -110 -31 -201q-27 -81 -92 -133h104q84 0 119 37q35 38 39 106l158 -28q-2 -60 -25 -119.5t-61 -95.5q-45 -44 -101 -57t-126 -13h-361z" />
<glyph unicode="&#xa8;" horiz-adv-x="651" d="M131 1157v219h152v-219h-152zM369 1157v219h151v-219h-151z" />
<glyph unicode="&#xa9;" horiz-adv-x="1323" d="M59 688q0 158 50.5 298.5t134.5 237t193.5 152.5t226.5 56q89 0 177 -33.5t163.5 -98.5t134 -152t92 -202t33.5 -241q0 -165 -50.5 -305t-135 -231.5t-191.5 -142.5t-221 -51q-172 0 -312 98t-217.5 261t-77.5 354zM207 694q0 -133 39 -244.5t103 -183.5t146 -111.5 t169 -39.5q90 0 171 39.5t143.5 112.5t99 185.5t36.5 249.5q0 130 -38.5 243t-101.5 189t-143.5 119t-164.5 43q-83 0 -164 -40.5t-147.5 -114.5t-107 -190.5t-40.5 -256.5zM459 707q0 152 17.5 237t55.5 129q53 62 140 62q82 0 129 -52q28 -31 43.5 -82t17.5 -94l-145 -18 q0 47 -15 92q-9 27 -32 27q-17 0 -24.5 -9.5t-12.5 -29.5q-15 -73 -15 -262q0 -70 5.5 -156.5t15.5 -120.5q10 -35 35 -35q21 0 31 31q15 37 12 80l145 -19q-3 -96 -55 -157q-50 -60 -133 -60q-92 0 -146 66q-69 83 -69 371z" />
<glyph unicode="&#xab;" horiz-adv-x="610" d="M20 549l127 291h138l-97 -291l97 -301h-135zM272 549l127 291h136l-97 -291l99 -301h-136z" />
<glyph unicode="&#xad;" horiz-adv-x="468" d="M70 461v170h329v-170h-329z" />
<glyph unicode="&#xae;" horiz-adv-x="1323" d="M59 688q0 158 50.5 298.5t134.5 237t193.5 152.5t226.5 56q89 0 177 -33.5t163.5 -98.5t134 -152t92 -202t33.5 -241q0 -165 -50.5 -305t-135 -231.5t-191.5 -142.5t-221 -51q-172 0 -312 98t-217.5 261t-77.5 354zM207 694q0 -133 39 -244.5t103 -183.5t146 -111.5 t169 -39.5q90 0 171 39.5t143.5 112.5t99 185.5t36.5 249.5q0 130 -38.5 243t-101.5 189t-143.5 119t-164.5 43q-83 0 -164 -40.5t-147.5 -114.5t-107 -190.5t-40.5 -256.5zM465 281v843h194q110 0 160 -59q53 -62 53 -193q0 -106 -28 -151q-18 -31 -49 -51l112 -389h-162 l-86 354h-41v-354h-153zM618 762h41q30 0 41 20q13 22 13 99q0 87 -15 102q-12 14 -39 14h-41v-235z" />
<glyph unicode="&#xb4;" horiz-adv-x="655" d="M272 1210l201 215l90 -104l-219 -182z" />
<glyph unicode="&#xbb;" horiz-adv-x="610" d="M74 840h135l129 -301l-127 -291h-135l96 291zM326 248l96 291l-96 301h135l129 -301l-127 -291h-137z" />
<glyph unicode="&#x401;" horiz-adv-x="614" d="M94 0v1405h479v-178h-268v-402h195v-178h-195v-469h287v-178h-498zM133 1567v188h162v-188h-162zM373 1567v188h162v-188h-162z" />
<glyph unicode="&#x402;" horiz-adv-x="796" d="M-27 1227v178h574v-178h-209v-426q65 53 143 53q143 0 209 -137q53 -108 53 -326q0 -191 -47 -291q-31 -65 -76.5 -95t-115.5 -30q-61 0 -113 25l23 229q27 -16 49 -16q41 0 51 47q12 43 12 133q0 101 -16 148q-23 67 -84 67q-46 0 -88 -45v-563h-209v1227h-156z" />
<glyph unicode="&#x403;" horiz-adv-x="569" d="M94 0v1405h506v-191h-297v-1214h-209zM221 1591l248 158l59 -125l-260 -121z" />
<glyph unicode="&#x404;" horiz-adv-x="679" d="M59 684q0 465 111 619q85 120 229 120q130 0 209 -104q31 -41 51 -97.5t25.5 -89t7.5 -57.5l-188 -37q0 75 -19 127q-13 40 -37 60t-49 20q-63 0 -88 -96q-13 -56 -22.5 -158.5t-7.5 -167.5h182v-198h-187q4 -279 37 -385q25 -80 86 -80q47 0 72 57q17 39 31 125l192 -33 q-22 -163 -96 -243q-79 -82 -199 -82q-157 0 -243 131q-97 150 -97 569z" />
<glyph unicode="&#x405;" horiz-adv-x="647" d="M31 324l196 20q-4 -72 21 -135q11 -27 26 -39t41 -12q29 0 45 14t27 45q21 63 21 148q0 113 -52 186q-20 26 -96 94q-90 81 -129 137q-46 66 -63 130t-17 143q0 175 68 268q74 100 203 100q122 0 192 -84q11 -11 25.5 -33t33.5 -77t19 -115l-197 -24q-2 51 -18 108 q-7 25 -17 36t-34 11q-30 0 -47 -28q-21 -42 -21 -138q0 -53 11 -91t42 -77q26 -33 62 -65.5t63.5 -54t61 -58.5t59.5 -82q59 -103 59 -252q0 -185 -61 -290q-78 -125 -238 -125q-142 0 -215 90q-33 40 -53 112t-18 138z" />
<glyph unicode="&#x406;" horiz-adv-x="399" d="M94 0v1405h211v-1405h-211z" />
<glyph unicode="&#x407;" horiz-adv-x="399" d="M-14 1522v188h161v-188h-161zM94 0v1405h211v-1405h-211zM225 1522v188h162v-188h-162z" />
<glyph unicode="&#x408;" horiz-adv-x="468" d="M-12 6v174l10 -2q10 -1 31 -2.5t49 -1.5q32 0 53 11t33 44q12 36 12 123v1053h211v-1043q0 -166 -41 -239q-8 -16 -22.5 -34t-42.5 -42.5t-75.5 -40.5t-105.5 -16q-62 0 -112 16z" />
<glyph unicode="&#x409;" horiz-adv-x="1130" d="M-12 0v178q62 0 98 31q41 38 51 205q12 210 19 420q8 254 12 571h500v-557h94q76 0 129 -32.5t82 -76.5q33 -50 48 -143.5t15 -187.5q0 -232 -90 -328q-73 -80 -217 -80h-270v1214h-127q-8 -483 -10 -536q-10 -304 -19 -384q-17 -145 -65 -214q-66 -92 -181 -92 q-42 0 -69 12zM668 170h41q59 0 86 35q30 42 30 215q0 166 -24 209q-29 49 -92 49h-41v-508z" />
<glyph unicode="&#x40a;" horiz-adv-x="1120" d="M94 0v1405h211v-574h184v574h211v-574h93q76 0 129 -32t82 -76q63 -95 63 -315q0 -232 -90 -328q-73 -80 -217 -80h-271v641h-184v-641h-211zM700 170h41q59 0 86 35q31 36 31 215q0 129 -24 172q-29 49 -93 49h-41v-471z" />
<glyph unicode="&#x40b;" horiz-adv-x="804" d="M-27 1227v178h535v-178h-170v-428q55 55 137 55q58 0 106.5 -28.5t77.5 -73.5q24 -37 36 -95.5t14 -103t2 -121.5v-432h-209v389q0 130 -10 160q-19 59 -70 59q-22 0 -45.5 -12.5t-38.5 -32.5v-563h-209v1227h-156z" />
<glyph unicode="&#x40c;" horiz-adv-x="724" d="M94 0v1405h205v-557h57q25 0 43 7.5t27 21.5t12.5 26t5.5 27q11 92 17 209q6 100 12 129q18 75 57 112t115 37q33 0 55 -12v-164h-12q-9 0 -15 -2t-14 -8.5t-12.5 -23.5t-5.5 -44q-5 -126 -18 -227q-8 -82 -41 -125q-24 -35 -74 -51v-6q90 -20 121 -109q6 -16 10 -35 t6 -34.5t4 -42t2.5 -40.5t1.5 -47.5t2 -48.5q3 -107 6.5 -142.5t14.5 -55.5q14 -26 41 -19v-180q-19 -12 -53 -12q-117 0 -160 108q-20 49 -28 122t-13 200q-8 145 -25 178q-23 43 -82 43h-57v-639h-205zM285 1591l247 158l60 -125l-260 -121z" />
<glyph unicode="&#x40e;" horiz-adv-x="606" d="M-8 1405h221l100 -555q4 -24 6 -38t5.5 -40t9.5 -63h4q1 12 3 35.5t3 35.5q0 4 1 12.5t1 12.5q2 32 8 61l88 539h193l-205 -1061q-40 -206 -100 -281q-60 -73 -180 -73q-53 0 -105 10v180q60 -6 70 -6q60 0 90 37q27 36 43 131l4 25zM80 1810h184q0 -55 8 -86 q7 -27 23.5 -44t34.5 -17t34 17t23 44q8 31 8 86h185q0 -132 -68 -217q-67 -86 -180 -86q-120 0 -187 86q-8 8 -21 30t-29.5 75.5t-14.5 111.5z" />
<glyph unicode="&#x40f;" horiz-adv-x="776" d="M94 0v1405h209v-1143h170v1143h209v-1405h-199v-287h-190v287h-199z" />
<glyph unicode="&#x410;" horiz-adv-x="647" d="M0 0l217 1405h207l223 -1405h-196l-50 387h-170l-43 -387h-188zM246 559h135l-31 250q-20 160 -28 250t-15 133q-10 -95 -12 -156t-21 -227z" />
<glyph unicode="&#x411;" horiz-adv-x="698" d="M94 0v1405h531v-191h-330v-372h72q159 0 235 -103q68 -85 68 -301q0 -95 -18.5 -191.5t-61.5 -150.5q-47 -59 -110 -77.5t-140 -18.5h-246zM295 170h45q63 0 92 51q25 42 25 217q0 140 -29 189q-27 45 -84 45h-49v-502z" />
<glyph unicode="&#x412;" d="M94 0v1405h191q46 0 76.5 -2.5t74.5 -15.5t76 -39q106 -84 106 -287q0 -164 -49 -236q-35 -56 -108 -75q84 -21 137 -97q57 -89 57 -262q0 -219 -106 -315q-30 -27 -66.5 -44.5t-78 -23.5t-62.5 -7t-57 -1h-191zM295 166h35q38 0 59 10t37 45q18 41 18 185q0 148 -24 200 q-12 25 -26.5 37.5t-25 14t-31.5 1.5h-7h-35v-493zM295 823l29 -2q60 -5 88 60q14 31 14 151q0 116 -25 166q-12 21 -26.5 31.5t-24 12t-26.5 1.5h-29v-420z" />
<glyph unicode="&#x413;" horiz-adv-x="569" d="M94 0v1405h506v-191h-297v-1214h-209z" />
<glyph unicode="&#x414;" horiz-adv-x="743" d="M-41 186h70q51 135 88 332q30 165 39 352q13 207 22 535h486v-1219h96v-493h-178v307h-445v-309h-178v495zM225 186h230v1028h-115q-3 -306 -31 -591q-24 -246 -84 -437z" />
<glyph unicode="&#x415;" horiz-adv-x="614" d="M94 0v1405h479v-178h-268v-402h195v-178h-195v-469h287v-178h-498z" />
<glyph unicode="&#x416;" horiz-adv-x="983" d="M0 0v180q27 -7 41 19q10 19 13 49t6 121q1 18 1 28q0 11 1.5 41.5t2 42t1.5 35.5t3 37t4.5 31t6 32.5t8.5 28.5q31 89 121 109v6q-50 16 -74 51q-33 43 -41 125q-13 101 -18 227q-1 35 -10 53.5t-16.5 21.5t-20.5 3h-13v164q22 12 56 12q75 0 114 -37q41 -38 58 -112 q6 -29 12 -129q7 -133 16 -209q2 -15 5.5 -27t12.5 -26t27 -21.5t43 -7.5h33v557h197v-557h33q25 0 43 7.5t27 21.5t12.5 26t5.5 27q9 76 16 209q6 100 12 129q17 74 58 112q39 37 114 37q34 0 56 -12v-164h-13q-9 0 -15 -2t-14 -8.5t-12.5 -23.5t-5.5 -44q-5 -126 -18 -227 q-8 -82 -41 -125q-24 -35 -74 -51v-6q90 -20 121 -109q5 -14 8.5 -28.5t6 -32.5t4.5 -31t3 -37t1.5 -35.5t2 -42t1.5 -41.5q0 -10 1 -28q4 -130 13 -157l6 -13q14 -26 41 -19v-180q-19 -12 -53 -12q-117 0 -160 108q-20 49 -28 122t-13 200q-8 147 -24 178q-23 43 -82 43 h-33v-639h-197v639h-33q-58 0 -81 -43q-17 -33 -25 -178q-5 -127 -13 -200t-28 -122q-43 -108 -160 -108q-34 0 -53 12z" />
<glyph unicode="&#x417;" horiz-adv-x="681" d="M33 1051q2 74 28.5 157t69.5 133q72 82 205 82q126 0 201 -86q77 -89 77 -254q0 -147 -51 -235q-44 -71 -117 -94v-6q78 -14 125 -74q66 -84 66 -250q0 -235 -90 -346q-42 -54 -93.5 -74t-117.5 -20q-84 0 -142 26t-100 94q-63 110 -59 244l198 27q-10 -74 17 -150 q19 -63 72 -63q45 0 67 41q23 41 23 205q0 120 -27 172q-33 55 -106 55h-64v190h64q62 0 94 45q33 44 33 164q0 130 -21 172q-19 39 -59 39q-46 0 -66 -51q-35 -77 -31 -166z" />
<glyph unicode="&#x418;" horiz-adv-x="804" d="M94 0v1405h180v-619q0 -118 -24 -254h4q16 47 25 75t11.5 34t5.5 15.5t9 27.5l225 643v78h181v-1405h-181v668q0 108 21 252h-2q-15 -45 -24.5 -81t-24.5 -79l-226 -647v-113h-180z" />
<glyph unicode="&#x419;" horiz-adv-x="804" d="M94 0v1405h180v-619q0 -118 -24 -254h4q16 47 25 75t11.5 34t5.5 15.5t9 27.5l225 643v78h181v-1405h-181v668q0 108 21 252h-2q-15 -45 -24.5 -81t-24.5 -79l-226 -647v-113h-180zM156 1798h168q0 -57 6 -84t25.5 -42t43.5 -15t44 15t26 42t6 84h168q0 -126 -65 -209 q-61 -82 -177 -82t-182 82q-31 40 -48 97.5t-15 111.5z" />
<glyph unicode="&#x41a;" horiz-adv-x="724" d="M94 0v1405h205v-557h57q25 0 43 7.5t27 21.5t12.5 26t5.5 27q11 92 17 209q6 100 12 129q18 75 57 112t115 37q33 0 55 -12v-164h-12q-9 0 -15 -2t-14 -8.5t-12.5 -23.5t-5.5 -44q-5 -126 -18 -227q-8 -82 -41 -125q-24 -35 -74 -51v-6q90 -20 121 -109q6 -16 10 -35 t6 -34.5t4 -42t2.5 -40.5t1.5 -47.5t2 -48.5q3 -107 6.5 -142.5t14.5 -55.5q14 -26 41 -19v-180q-19 -12 -53 -12q-117 0 -160 108q-20 49 -28 122t-13 200q-8 145 -25 178q-23 43 -82 43h-57v-639h-205z" />
<glyph unicode="&#x41b;" horiz-adv-x="761" d="M-12 0v178q62 0 98 31q41 38 51 205q12 210 19 420q8 254 12 571h500v-1405h-209v1214h-127q-8 -483 -10 -536q-10 -304 -19 -384q-17 -145 -65 -214q-66 -92 -181 -92q-42 0 -69 12z" />
<glyph unicode="&#x41c;" horiz-adv-x="972" d="M96 0v1405h228l116 -737q27 -165 43 -398q0 4 1 12.5t1 12.5q1 17 3.5 48.5t3.5 47.5q3 49 38 277l111 737h236v-1405h-170v532q0 156 4 332q2 70 2 178q-20 -139 -21 -145q-15 -123 -23 -182t-15 -100t-13 -83l-80 -532h-158l-84 545q-7 46 -19 114t-20.5 121t-13.5 103 q-9 102 -16 159q10 -215 10 -503v-539h-164z" />
<glyph unicode="&#x41d;" horiz-adv-x="794" d="M94 0v1405h211v-592h184v592h211v-1405h-211v623h-184v-623h-211z" />
<glyph unicode="&#x41e;" horiz-adv-x="757" d="M59 702q0 211 12.5 327t41.5 192q23 60 57 102.5t71.5 63t70.5 28.5t67 8t67 -8t70.5 -28.5t71.5 -63t57 -102.5q29 -75 41 -191t12 -328t-12 -327.5t-41 -190.5q-23 -60 -57 -102.5t-71.5 -63t-70.5 -28.5t-67 -8t-67 8t-70.5 28.5t-71.5 63t-57 102.5q-30 76 -42 191.5 t-12 326.5zM285 702q0 -196 5 -310.5t10.5 -144t14.5 -48.5q21 -43 64 -43q42 0 63 43q9 19 14.5 48.5t11 144t5.5 310.5t-5.5 311t-11 144.5t-14.5 48.5q-21 43 -63 43q-43 0 -64 -43q-9 -19 -14.5 -49t-10.5 -144.5t-5 -310.5z" />
<glyph unicode="&#x41f;" horiz-adv-x="776" d="M94 0v1405h588v-1405h-209v1214h-170v-1214h-209z" />
<glyph unicode="&#x420;" horiz-adv-x="686" d="M94 0v1405h238q40 0 57 -1t54.5 -7t68.5 -23.5t59 -46.5q51 -52 76 -148t25 -204q0 -91 -21 -186.5t-71 -149.5q-73 -80 -211 -80h-64v-559h-211zM305 754h41h10.5h11t9.5 0.5t10.5 1.5t9 3t9.5 5t8.5 7.5t9.5 10.5t8 13q19 34 19 188q0 151 -19 195q-11 22 -26 33.5 t-27 13.5t-33 2h-41v-473z" />
<glyph unicode="&#x421;" horiz-adv-x="647" d="M59 715q0 472 113 612q80 96 205 96q120 0 190 -77q38 -42 65 -125t30 -152l-195 -25q-4 82 -25 142q-20 59 -63 59q-35 0 -50.5 -23t-23.5 -61q-24 -120 -24 -465q0 -362 30 -467q18 -69 70 -69q47 0 65 61q17 57 21 125l195 -29q-5 -61 -27 -130.5t-55 -112.5 q-69 -90 -199 -90q-138 0 -215 102q-107 142 -107 629z" />
<glyph unicode="&#x422;" horiz-adv-x="536" d="M-8 1194v211h553v-211h-174v-1194h-209v1194h-170z" />
<glyph unicode="&#x423;" horiz-adv-x="606" d="M-8 1405h221l100 -555q4 -24 6 -38t5.5 -40t9.5 -63h4q1 12 3 35.5t3 35.5q0 4 1 12.5t1 12.5q2 32 8 61l88 539h193l-205 -1061q-40 -206 -100 -281q-60 -73 -180 -73q-53 0 -105 10v180q60 -6 70 -6q60 0 90 37q27 36 43 131l4 25z" />
<glyph unicode="&#x424;" horiz-adv-x="983" d="M53 756q0 62 7.5 154t21.5 145q32 121 117.5 184t197.5 68v141h189v-141q46 -3 88.5 -15.5t88 -39t82 -77.5t56.5 -120q29 -98 29 -287q0 -236 -49 -369q-81 -215 -295 -211v-188h-189v188q-96 -5 -175.5 45.5t-119.5 165.5q-49 137 -49 357zM252 731q0 -183 22 -258 q18 -55 46 -78.5t81 -23.5v753q-39 -2 -68 -19.5t-50 -64.5q-31 -73 -31 -309zM582 375q53 0 81 23.5t46 78.5q22 75 22 260q0 230 -31 303q-21 47 -50 64.5t-68 19.5v-749z" />
<glyph unicode="&#x425;" horiz-adv-x="573" d="M-25 0l211 725l-186 680h205l90 -440l94 440h191l-191 -657l209 -748h-209l-108 489l-113 -489h-193z" />
<glyph unicode="&#x426;" horiz-adv-x="757" d="M94 0v1405h209v-1215h158v1215h209v-1215h96v-497h-178v307h-494z" />
<glyph unicode="&#x427;" horiz-adv-x="727" d="M53 963v442h209v-463q0 -94 17 -129q22 -45 75 -45q36 0 70 18v619h209v-1405h-209v602q-56 -20 -131 -20q-45 0 -81.5 11t-58 27t-38.5 39.5t-25 42.5t-14 43q-23 87 -23 218z" />
<glyph unicode="&#x428;" horiz-adv-x="1060" d="M94 0v1405h189v-1223h153v1223h189v-1223h153v1223h189v-1405h-873z" />
<glyph unicode="&#x429;" horiz-adv-x="1058" d="M94 0v1405h189v-1223h153v1223h189v-1223h153v1223h189v-1223h100v-489h-180v307h-793z" />
<glyph unicode="&#x42a;" horiz-adv-x="780" d="M-29 1214v191h400v-557h94q76 0 129 -32.5t82 -76.5q33 -50 48 -143.5t15 -187.5q0 -232 -90 -328q-73 -80 -217 -80h-270v1214h-191zM371 170h41q60 0 86 37q30 41 30 213q0 166 -24 209q-29 49 -92 49h-41v-508z" />
<glyph unicode="&#x42b;" horiz-adv-x="1054" d="M94 0v1405h201v-557h94q57 0 104 -22.5t66.5 -43.5t32.5 -43q59 -92 59 -331q0 -233 -86 -328q-42 -49 -93.5 -64.5t-115.5 -15.5h-262zM295 170h41q61 0 90 35q33 39 33 215q0 166 -27 209q-30 49 -96 49h-41v-508zM760 0v1405h201v-1405h-201z" />
<glyph unicode="&#x42c;" horiz-adv-x="712" d="M94 0v1405h209v-557h94q76 0 129 -32.5t82 -76.5q33 -51 48.5 -144.5t15.5 -186.5q0 -232 -90 -328q-73 -80 -217 -80h-271zM303 170h41q59 0 86 35q31 43 31 215q0 164 -25 209q-29 49 -92 49h-41v-508z" />
<glyph unicode="&#x42d;" horiz-adv-x="702" d="M25 346l198 25q0 -65 15 -127q20 -82 81 -82q78 0 93 121q12 117 12 356h-182v190h182q0 204 -12 312q-13 104 -86 104q-27 0 -51.5 -19.5t-36.5 -70.5q-11 -48 -15 -111l-192 25q3 59 20.5 121.5t44.5 105.5q77 127 232 127q161 0 241 -151q74 -138 74 -547 q0 -220 -8 -328t-35 -188q-72 -225 -281 -225q-93 0 -157 42t-103 134q-38 91 -34 186z" />
<glyph unicode="&#x42e;" horiz-adv-x="1087" d="M94 0v1405h209v-580h113q0 264 49 396q22 60 53.5 102.5t68 63t68 28.5t64.5 8q34 0 66.5 -8t69.5 -28.5t69 -62t53 -101.5q51 -139 51 -521q0 -381 -51 -520q-21 -60 -53 -101.5t-69 -62t-69.5 -28.5t-66.5 -8q-33 0 -64.5 8t-68 28.5t-68.5 63t-53 102.5 q-51 146 -51 451h-111v-635h-209zM623 702q0 -275 7.5 -375t22.5 -128q23 -43 66 -43q40 0 61 43q9 19 14.5 48.5t11 144t5.5 310.5t-5.5 311t-11 144.5t-14.5 48.5q-21 43 -61 43q-43 0 -66 -43q-15 -28 -22.5 -128.5t-7.5 -375.5z" />
<glyph unicode="&#x42f;" horiz-adv-x="722" d="M16 0l148 655q-47 33 -70 80q-24 47 -35.5 120.5t-11.5 139.5q0 224 94 324q81 86 228 86h260v-1405h-201v590h-94l-105 -590h-213zM254 989q0 -109 22 -153q13 -28 38.5 -47t56.5 -19h57v455h-57q-31 0 -54 -16.5t-34 -37.5q-29 -48 -29 -182z" />
<glyph unicode="&#x430;" horiz-adv-x="577" d="M29 324q0 159 57 249q60 89 154 89q46 0 92 -21v123q0 88 -15 115q-13 22 -38 22q-38 0 -54 -37t-16 -98l-162 16q3 52 24 110t56 95q64 68 158 68q90 0 151 -68q33 -37 49.5 -86t19.5 -85.5t3 -98.5v-557v-17.5v-18.5t0.5 -17t1.5 -19t2.5 -18.5t4 -21.5t6.5 -22t9 -26 h-174q-14 34 -18 84q-15 -43 -50 -70.5t-77 -27.5q-77 0 -127 73q-57 84 -57 265zM215 260q0 -28 1 -44t5 -38t15 -32.5t28 -10.5q14 0 29 11t24 30q15 30 15 68v243q-24 21 -49 21q-68 0 -68 -137v-111z" />
<glyph unicode="&#x431;" horiz-adv-x="612" d="M45 606q0 318 18 471q14 114 48.5 187.5t101.5 117.5q12 8 26.5 16t25 13.5t29.5 13t27 10.5t33 11.5t33 11.5q107 38 160 53v-180q-49 -26 -113 -49q-146 -57 -190 -98q-42 -40 -56 -107.5t-16 -167.5l4 -2q16 44 53 78q42 39 107 39q120 0 180 -117q51 -102 51 -366 q0 -306 -51 -422q-30 -69 -79 -101t-132 -32q-70 0 -117.5 25.5t-81.5 88.5q-61 110 -61 506zM242 387q0 -87 10 -172q3 -25 10 -42.5t16.5 -25t16.5 -10t14 -2.5q17 0 32.5 18t20.5 60q9 74 9 170v225q0 128 -9 195q-8 71 -49 71q-54 0 -63 -94q-8 -84 -8 -178v-215z" />
<glyph unicode="&#x432;" horiz-adv-x="589" d="M70 0v1040h258q102 0 157 -57q58 -60 58 -209q0 -75 -23 -127q-24 -57 -80 -88v-4q67 -19 97 -86q28 -57 28 -162q0 -161 -59 -235q-58 -72 -174 -72h-262zM254 150h41q50 0 70 40q18 27 18 127q0 69 -14 101q-19 45 -70 45h-45v-313zM254 612h37q34 0 59 33 q21 30 21 115q0 66 -13 92q-20 39 -65 39h-39v-279z" />
<glyph unicode="&#x433;" horiz-adv-x="468" d="M82 0v1040h395v-163h-215v-877h-180z" />
<glyph unicode="&#x434;" horiz-adv-x="600" d="M-29 168h54q65 190 84 491q7 113 12 381h411v-872h76v-449h-159v281h-318v-281h-160v449zM193 168h151v704h-82q0 -155 -8 -278q-15 -250 -61 -426z" />
<glyph unicode="&#x435;" horiz-adv-x="575" d="M45 508q0 233 35 344q32 98 92.5 150.5t138.5 52.5q86 0 146.5 -65.5t81.5 -174.5q16 -83 16 -344h-322q0 -201 15 -274q7 -29 20 -45.5t39 -16.5q39 0 55 47q17 49 13 111l166 -21q-2 -49 -17.5 -106.5t-40.5 -93.5q-34 -52 -77.5 -69t-96.5 -17q-38 0 -69.5 8 t-66.5 29.5t-62.5 68t-42.5 115.5q-23 108 -23 301zM233 627h136q0 146 -11 215q-16 63 -55 63q-8 0 -16.5 -3.5t-20.5 -18t-18 -37.5q-15 -56 -15 -219z" />
<glyph unicode="&#x436;" horiz-adv-x="864" d="M12 0v168q32 -14 47 16q11 21 17 107q6 124 20 172q26 86 103 94v4q-34 7 -62 35q-35 35 -39 90l-6 80q-1 15 -2 33.5t-1.5 28t-2 20.5t-4.5 20q-5 15 -16 22t-23 3v151q29 11 55 11q59 0 99 -37q34 -34 43 -105q3 -23 12 -157q0 -7 1 -17.5t1 -15.5t1 -13t1 -12t1 -10 t2 -9.5t2 -7.5t2 -7t3 -6t4 -5q17 -20 52 -20h22v407h176v-407h23q34 0 51 20q2 2 4 5t3 6t2 7t2 7.5t2 9.5t1 10t1 12t1 13t1 15.5t1 17.5q8 120 13 157q9 71 43 105q40 37 98 37q26 0 55 -11v-151q-12 4 -23 -3t-16 -22q-4 -11 -5.5 -23.5t-2.5 -37.5t-2 -41l-6 -80 q-4 -55 -39 -90q-29 -28 -61 -35v-4q76 -8 102 -94q14 -48 20 -172q6 -86 17 -107q15 -30 47 -16v-168q-28 -12 -59 -12q-60 0 -93 26q-34 26 -47.5 71t-21.5 116q-1 16 -8 86.5t-9 93.5q-5 84 -59 84h-35v-465h-176v465h-35q-54 0 -59 -84q-2 -23 -9 -93.5t-8 -86.5 q-5 -47 -10 -75t-20 -61t-39 -51q-33 -26 -92 -26q-32 0 -60 12z" />
<glyph unicode="&#x437;" horiz-adv-x="567" d="M25 297l172 10q0 -72 8 -108q12 -64 55 -64q42 0 57 45q17 50 17 115q0 81 -25 119q-26 37 -84 37h-59v167h59q24 0 46.5 10.5t33.5 24.5q21 29 21 107q0 54 -11 98q-13 47 -53 47q-34 0 -47 -47q-14 -58 -14 -127l-170 12q-2 62 16.5 128t56.5 110q62 74 175 74 q121 0 184 -82q55 -74 55 -191q0 -87 -31 -151q-30 -61 -96 -84v-6q64 -19 98 -70q41 -60 41 -180q0 -146 -69 -228q-69 -77 -195 -77q-118 0 -178 73q-33 39 -49.5 108t-13.5 130z" />
<glyph unicode="&#x438;" horiz-adv-x="632" d="M70 0v1040h180v-452q0 -23 -7 -79t-10 -99h5q15 55 20 86t16 69l109 414v61h180v-1040h-180v457q0 47 14 194h-4q-15 -59 -22 -95.5t-19 -84.5l-102 -399v-72h-180z" />
<glyph unicode="&#x439;" horiz-adv-x="657" d="M82 0v1040h180v-452q0 -24 -6.5 -80.5t-9.5 -97.5h4q15 55 20.5 86t16.5 69l108 414v61h180v-1040h-180v457q0 37 15 194h-4q-15 -59 -22 -95.5t-19 -84.5l-103 -399v-72h-180zM127 1405h152q0 -72 14 -100q15 -27 41 -27t41 27q14 23 14 100h152q2 -46 -13 -102.5 t-41 -88.5q-24 -29 -67.5 -47t-85.5 -18t-86 18t-68 47q-26 32 -40.5 88t-12.5 103z" />
<glyph unicode="&#x43a;" horiz-adv-x="626" d="M82 0v1040h184v-407h39q34 0 51 20q10 11 12.5 30t6.5 73q9 134 12 157q9 71 43 105q40 37 98 37q27 0 56 -11v-151q-12 4 -23 -3t-16 -22q-4 -11 -5.5 -23.5t-2.5 -37.5t-2 -41l-7 -80q-4 -55 -39 -90q-29 -28 -61 -35v-4q76 -8 102 -94q15 -52 21 -172q6 -89 16 -107 q15 -30 47 -16v-168q-28 -12 -59 -12q-59 0 -92 26q-34 26 -48 71.5t-22 115.5q-1 17 -7.5 88t-8.5 92q-5 84 -60 84h-51v-465h-184z" />
<glyph unicode="&#x43b;" horiz-adv-x="598" d="M-14 -2v168q85 -9 104 102q8 52 16 287q6 154 11 485h411v-1040h-188v872h-74q-5 -111 -10 -248.5t-9 -216.5t-9 -137q-12 -160 -68 -225q-48 -57 -123 -57q-31 0 -61 10z" />
<glyph unicode="&#x43c;" horiz-adv-x="815" d="M70 0v1040h256l63 -497q12 -85 12 -131h5q3 81 10 131l82 497h247v-1040h-174v635q0 79 2 106q5 66 5 78h-3q-10 -50 -28 -172l-103 -647h-114l-94 633q-16 113 -31 184q0 -42 2 -82.5t2 -99.5v-635h-139z" />
<glyph unicode="&#x43d;" horiz-adv-x="630" d="M70 0v1040h188v-415h115v415h188v-1040h-188v457h-115v-457h-188z" />
<glyph unicode="&#x43e;" horiz-adv-x="610" d="M45 520q0 191 20 301t66 164q61 70 174 70t174 -70q46 -54 66 -164t20 -301t-20 -301t-66 -164q-60 -69 -174 -69t-174 69q-46 54 -66 164t-20 301zM240 522q0 -278 18 -338q12 -49 47 -49t47 49q19 63 19 338t-19 338q-12 49 -47 49t-47 -49q-18 -60 -18 -338z" />
<glyph unicode="&#x43f;" horiz-adv-x="630" d="M70 0v1040h491v-1040h-188v872h-115v-872h-188z" />
<glyph unicode="&#x440;" horiz-adv-x="616" d="M70 -373v1413h170v-118q17 44 41 75q40 52 96 52q16 0 33.5 -5t44 -21.5t50.5 -57t38 -101.5q28 -118 28 -358q0 -248 -39 -385q-43 -133 -149 -133q-47 0 -86 24q-27 19 -39 37v-422h-188zM258 215q0 -30 12 -49q17 -27 41 -27q28 0 43 35q19 48 19 334q0 255 -15 332 q-13 57 -49 57q-31 0 -43 -41q-8 -28 -8 -53v-588z" />
<glyph unicode="&#x441;" horiz-adv-x="540" d="M45 528q0 66 3 117.5t12 124.5t32.5 131t59.5 94q60 60 149 60q98 0 156 -68q38 -44 58 -114.5t17 -139.5l-176 -12q0 100 -16 147q-4 11 -7.5 17.5t-11.5 13t-20 6.5q-42 0 -51 -71q-8 -70 -8 -279q0 -321 16 -377q14 -43 43 -43t43 41q16 49 16 156l175 -8 q2 -60 -12 -135t-42 -117q-57 -86 -182 -86q-57 0 -99.5 17.5t-76.5 64.5q-44 62 -61 170t-17 290z" />
<glyph unicode="&#x442;" horiz-adv-x="450" d="M-4 872v168h459v-168h-136v-872h-188v872h-135z" />
<glyph unicode="&#x443;" horiz-adv-x="501" d="M-14 -203q30 -12 57 -12q43 0 62.5 20.5t31.5 63.5q24 89 33 199l-172 972h186l52 -424q22 -197 20 -268q5 28 7.5 83t17.5 181l51 428h166l-174 -1042q-5 -26 -12.5 -72t-11.5 -68.5t-11 -53.5t-16 -53t-21 -40q-57 -86 -164 -86q-52 0 -102 15v157z" />
<glyph unicode="&#x444;" horiz-adv-x="856" d="M41 516q0 92 13.5 202.5t43.5 174.5q73 152 242 166v346h176v-346q166 -13 242 -166q57 -116 57 -377q0 -279 -61 -389q-74 -135 -238 -135v-344h-176v344q-164 0 -238 135q-32 58 -46.5 169t-14.5 220zM217 530q0 -220 10 -266q11 -57 39 -82t76 -30v747 q-71 -12 -104 -88q-13 -33 -17 -87t-4 -194zM514 152q48 5 76 30t39 82q10 46 10 266q0 140 -4 194t-17 87q-33 76 -104 88v-747z" />
<glyph unicode="&#x445;" horiz-adv-x="464" d="M-20 0l163 547l-139 493h180l66 -311l61 311h174l-157 -493l157 -547h-174l-82 352l-86 -352h-163z" />
<glyph unicode="&#x446;" horiz-adv-x="634" d="M70 0v1040h184v-872h125v870h184v-870h80v-449h-160v281h-413z" />
<glyph unicode="&#x447;" horiz-adv-x="628" d="M63 717v323h185v-362q0 -56 14 -74q13 -18 49 -18q31 0 51 10v444h185v-1040h-185v428q-43 -14 -98 -14q-130 0 -178 108q-11 23 -16 56t-6 59t-1 80z" />
<glyph unicode="&#x448;" horiz-adv-x="892" d="M70 0v1038h176v-874h112v874h177v-874h112v874h176v-1038h-753z" />
<glyph unicode="&#x449;" horiz-adv-x="892" d="M70 0v1040h176v-876h112v876h177v-876h112v876h176v-876h78v-445h-160v281h-671z" />
<glyph unicode="&#x44a;" horiz-adv-x="651" d="M-29 872v168h338v-393h74q48 0 89.5 -18.5t60 -36t32.5 -37.5q53 -76 53 -219q0 -173 -59 -252q-62 -84 -182 -84h-256v872h-150zM309 160h29q47 0 70 37q20 33 20 149q0 71 -14 96q-9 17 -28 31t-42 14h-35v-327z" />
<glyph unicode="&#x44b;" horiz-adv-x="886" d="M70 0v1040h180v-385h74q116 0 182 -92q53 -75 53 -227q0 -171 -59 -250q-64 -86 -183 -86h-247zM250 160h33q21 0 42 10t31 27q21 26 21 131q0 93 -15 123q-22 45 -73 45h-39v-336zM637 0v1040h180v-1040h-180z" />
<glyph unicode="&#x44c;" horiz-adv-x="600" d="M70 0v1040h188v-385h74q116 0 182 -92q53 -75 53 -227q0 -173 -59 -252q-62 -84 -182 -84h-256zM258 160h29q46 0 69 37q21 35 21 131q0 93 -15 123q-19 45 -69 45h-35v-336z" />
<glyph unicode="&#x44d;" horiz-adv-x="561" d="M8 307l174 19q0 -78 11 -129q11 -62 57 -62q57 0 74 80q12 64 12 236h-172v167h172q0 149 -17 222q-13 65 -63 65q-49 0 -63 -65q-15 -69 -15 -123l-168 22q2 55 17.5 118t42.5 104q32 52 78 73t114 21q113 0 172 -70q51 -60 66.5 -163t15.5 -269q0 -343 -51 -447 q-32 -66 -84.5 -93t-132.5 -27q-115 0 -172 71q-32 39 -51 113t-17 137z" />
<glyph unicode="&#x44e;" horiz-adv-x="888" d="M70 0v1040h180v-415h92q8 162 28 241.5t52 118.5q57 70 170 70q111 0 170 -70q44 -54 63 -163.5t19 -301.5t-19 -301.5t-63 -163.5q-58 -69 -170 -69q-114 0 -170 69q-76 91 -80 402h-92v-457h-180zM526 522q0 -275 19 -338q12 -49 47 -49t47 49q18 60 18 338t-18 338 q-12 49 -47 49t-47 -49q-19 -63 -19 -338z" />
<glyph unicode="&#x44f;" horiz-adv-x="634" d="M8 0l125 457q-37 27 -63 71q-39 70 -39 183q0 189 90 270q65 59 176 59h256v-1040h-188v410h-66l-94 -410h-197zM229 709q0 -73 15 -107q20 -49 75 -49h46v309h-50q-40 0 -65 -37q-21 -34 -21 -116z" />
<glyph unicode="&#x451;" horiz-adv-x="575" d="M45 508q0 233 35 344q32 98 92.5 150.5t138.5 52.5q86 0 146.5 -65.5t81.5 -174.5q16 -83 16 -344h-322q0 -201 15 -274q7 -29 20 -45.5t39 -16.5q39 0 55 47q17 49 13 111l166 -21q-2 -49 -17.5 -106.5t-40.5 -93.5q-34 -52 -77.5 -69t-96.5 -17q-38 0 -69.5 8 t-66.5 29.5t-62.5 68t-42.5 115.5q-23 108 -23 301zM121 1182v219h151v-219h-151zM233 627h136q0 146 -11 215q-16 63 -55 63q-8 0 -16.5 -3.5t-20.5 -18t-18 -37.5q-15 -56 -15 -219zM358 1182v219h152v-219h-152z" />
<glyph unicode="&#x452;" horiz-adv-x="638" d="M2 1147v168h84v90h188v-90h185v-168h-185v-217q18 59 61.5 93t92.5 34q86 0 123 -92q27 -70 27 -301v-598q0 -207 -43 -302q-53 -116 -162 -116q-17 0 -64 14v209q11 -8 29 -8q45 0 45 74q0 11 1 32t1 33q0 9 1 26.5t1 26.5v645q0 86 -4 136q-5 53 -49 53q-33 0 -49 -49 q-11 -33 -11 -201v-639h-188v1147h-84z" />
<glyph unicode="&#x453;" horiz-adv-x="468" d="M82 0v1040h395v-163h-215v-877h-180zM180 1210l201 215l90 -104l-219 -182z" />
<glyph unicode="&#x454;" horiz-adv-x="567" d="M45 530q0 133 13.5 228t54.5 170q70 127 190 127q122 0 189 -97q57 -82 65 -215l-168 -24q-4 40 -22 115q-18 71 -56 71q-18 0 -36 -22t-25 -74q-10 -88 -10 -191h137v-165h-137q-2 -87 10 -207q12 -113 65 -113q18 0 36 21t26 67q12 70 12 111l172 -27 q-1 -31 -6.5 -66.5t-23.5 -90.5t-46 -89q-63 -75 -170 -75q-69 0 -116.5 25.5t-83.5 86.5q-36 62 -53 162.5t-17 271.5z" />
<glyph unicode="&#x455;" horiz-adv-x="503" d="M16 242l172 24q0 -69 15 -96q18 -29 47 -29q31 0 45 37q8 20 8 68q0 41 -6 67.5t-27 57.5q-27 39 -73 75q-5 4 -19.5 16.5t-21.5 19t-18.5 17.5t-20.5 21.5t-17 22.5q-65 90 -65 213q0 63 19 127t55 104q61 68 149 68q41 0 82.5 -17.5t69.5 -48.5q26 -29 43 -74t18 -92 l-168 -26q0 41 -12 71q-12 29 -35 29q-27 0 -37 -31q-8 -27 -8 -67q0 -65 39 -113q18 -21 52.5 -47.5t67.5 -59.5t60 -81q57 -103 57 -228q0 -138 -63 -213q-61 -71 -182 -71q-86 0 -140 49q-39 35 -61.5 94t-24.5 113z" />
<glyph unicode="&#x456;" horiz-adv-x="325" d="M70 0v1040h186v-1040h-186zM70 1204v201h186v-201h-186z" />
<glyph unicode="&#x457;" horiz-adv-x="342" d="M-49 1204v201h178v-201h-178zM78 0v1040h186v-1040h-186zM213 1204v201h178v-201h-178z" />
<glyph unicode="&#x458;" horiz-adv-x="321" d="M-51 -203q6 0 22 -2h27q16 0 24.5 1t18.5 9.5t16 24.5q9 18 9 86v1124h186v-1116q0 -72 -7 -119.5t-32 -83.5q-54 -79 -182 -79q-30 0 -62 4q-10 2 -20 2v149zM66 1204v201h186v-201h-186z" />
<glyph unicode="&#x459;" horiz-adv-x="870" d="M-14 -2v168q85 -9 104 102q8 52 16 287q6 154 11 485h411v-385h74q116 0 182 -92q54 -76 54 -227q0 -172 -60 -252q-62 -84 -182 -84h-256v872h-74q-5 -111 -10 -248.5t-9 -216.5t-9 -137q-12 -160 -68 -225q-48 -57 -123 -57q-31 0 -61 10zM528 160h29q47 0 70 37 q20 33 20 131q0 95 -14 123q-7 16 -24.5 30.5t-45.5 14.5h-35v-336z" />
<glyph unicode="&#x45a;" horiz-adv-x="940" d="M70 0v1040h188v-401h115v401h188v-401h74q48 0 89.5 -18.5t60 -36t32.5 -37.5q53 -76 53 -211q0 -173 -59 -252q-62 -84 -182 -84h-256v471h-115v-471h-188zM561 160h29q46 0 69 37q21 28 21 137q0 68 -14 92q-7 16 -24.5 30.5t-45.5 14.5h-35v-311z" />
<glyph unicode="&#x45b;" horiz-adv-x="630" d="M2 1147v168h84v90h188v-90h193v-168h-193v-207q9 36 39 70q41 43 107 43q80 0 121 -68q6 -10 10.5 -21.5t7.5 -22t5 -27.5t3 -28t1.5 -34.5t0.5 -36.5v-44v-48v-723h-190v711q0 120 -2 133q-8 51 -41 51q-39 0 -53 -43q-9 -29 -9 -131v-721h-188v1147h-84z" />
<glyph unicode="&#x45c;" horiz-adv-x="622" d="M82 0v1040h184v-407h39q34 0 51 20q10 11 12.5 30t6.5 73q9 134 12 157q9 71 43 105q40 37 98 37q27 0 56 -11v-151q-12 4 -23 -3t-16 -22q-4 -11 -5.5 -23.5t-2.5 -37.5t-2 -41l-7 -80q-4 -55 -39 -90q-29 -28 -61 -35v-4q76 -8 102 -94q15 -52 21 -172q6 -89 16 -107 q15 -30 47 -16v-168q-28 -12 -59 -12q-59 0 -92 26q-34 26 -48 71.5t-22 115.5q-1 17 -7.5 88t-8.5 92q-5 84 -60 84h-51v-465h-184zM238 1217l200 215l90 -105l-219 -182z" />
<glyph unicode="&#x45e;" horiz-adv-x="501" d="M-14 -203q30 -12 57 -12q43 0 62.5 20.5t31.5 63.5q24 89 33 199l-172 972h186l52 -424q22 -197 20 -268q5 28 7.5 83t17.5 181l51 428h166l-174 -1042q-5 -26 -12.5 -72t-11.5 -68.5t-11 -53.5t-16 -53t-21 -40q-57 -86 -164 -86q-52 0 -102 15v157zM45 1405h152 q0 -72 14 -100q15 -27 41 -27t41 27q14 23 14 100h152q2 -47 -12.5 -103t-40.5 -88q-24 -29 -68 -47t-86 -18t-86 18t-68 47q-26 32 -40.5 88t-12.5 103z" />
<glyph unicode="&#x45f;" horiz-adv-x="632" d="M70 0v1038h184v-870h125v870h184v-1038h-164v-266h-166v266h-163z" />
<glyph unicode="&#x490;" horiz-adv-x="575" d="M94 0v1405h316v287h196v-478h-303v-1214h-209z" />
<glyph unicode="&#x491;" horiz-adv-x="479" d="M82 0v1040h233v267h172v-430h-225v-877h-180z" />
<glyph unicode="&#x2000;" horiz-adv-x="905" />
<glyph unicode="&#x2001;" horiz-adv-x="1810" />
<glyph unicode="&#x2002;" horiz-adv-x="905" />
<glyph unicode="&#x2003;" horiz-adv-x="1810" />
<glyph unicode="&#x2004;" horiz-adv-x="603" />
<glyph unicode="&#x2005;" horiz-adv-x="452" />
<glyph unicode="&#x2006;" horiz-adv-x="301" />
<glyph unicode="&#x2007;" horiz-adv-x="301" />
<glyph unicode="&#x2008;" horiz-adv-x="226" />
<glyph unicode="&#x2009;" horiz-adv-x="362" />
<glyph unicode="&#x200a;" horiz-adv-x="100" />
<glyph unicode="&#x2010;" horiz-adv-x="468" d="M70 461v170h329v-170h-329z" />
<glyph unicode="&#x2011;" horiz-adv-x="468" d="M70 461v170h329v-170h-329z" />
<glyph unicode="&#x2012;" horiz-adv-x="468" d="M70 461v170h329v-170h-329z" />
<glyph unicode="&#x2013;" horiz-adv-x="651" d="M74 461v164h504v-164h-504z" />
<glyph unicode="&#x2014;" horiz-adv-x="935" d="M80 461v164h776v-164h-776z" />
<glyph unicode="&#x2018;" horiz-adv-x="397" d="M96 934v219l86 260l99 -2l-62 -246h82v-231h-205z" />
<glyph unicode="&#x2019;" horiz-adv-x="288" d="M25 1171v234h204v-221l-86 -258l-98 2l61 243h-81z" />
<glyph unicode="&#x201c;" horiz-adv-x="688" d="M96 926v221l88 258l99 -2l-64 -246h82v-231h-205zM387 926v221l86 258l96 -2l-63 -246h86v-231h-205z" />
<glyph unicode="&#x201d;" horiz-adv-x="688" d="M96 1171v234h205v-221l-86 -258l-96 2l63 243h-86zM387 1171v234h205v-221l-88 -258l-98 2l63 243h-82z" />
<glyph unicode="&#x201e;" horiz-adv-x="688" d="M96 0v233h205v-221l-86 -260l-96 2l63 246h-86zM387 0v233h205v-221l-88 -260l-98 2l63 246h-82z" />
<glyph unicode="&#x2026;" horiz-adv-x="1949" d="M221 0v244h213v-244h-213zM868 0v244h213v-244h-213zM1516 0v244h213v-244h-213z" />
<glyph unicode="&#x202f;" horiz-adv-x="362" />
<glyph unicode="&#x205f;" horiz-adv-x="452" />
<glyph unicode="&#x20ac;" d="M2 479l51 176h51q0 86 2 125h-104l51 176h58q13 206 65 318q74 149 205 149q83 0 176 -34q68 -25 127 -58l-57 -201q-50 39 -109 74q-63 39 -110 39q-37 0 -53.5 -21t-24.5 -55q-13 -55 -13 -211h261l-52 -176h-215q-3 -67 0 -125h181l-52 -176h-125q0 -108 13 -215 q2 -20 5 -32.5t11 -29.5t24.5 -25.5t41.5 -8.5q45 0 108 43q75 51 129 129v-254q-41 -35 -92 -63q-73 -39 -147 -39q-206 0 -267 249q-18 79 -30 246h-109z" />
<glyph unicode="&#x2122;" horiz-adv-x="862" d="M-10 1249v113h309v-113h-86v-688h-135v688h-88zM346 561v801h143l72 -416q24 -161 27 -211q17 141 30 211l68 416h148v-801h-111v305q0 60 1.5 103t4.5 93t4 99q-11 -62 -18 -123q-13 -88 -20 -125t-9 -49l-49 -303h-100l-50 311q-9 61 -12.5 78t-11.5 68 q-15 113 -21 143q13 -181 13 -293v-307h-109z" />
<glyph unicode="&#x25fc;" horiz-adv-x="1044" d="M0 0v1044h1044v-1044h-1044z" />
</font>
</defs>
</svg>
